<svg width="10" height="11" viewBox="0 0 10 11" fill="none" xmlns="http://www.w3.org/2000/svg">
<path d="M6.36493 6.43135L5.79276 6.36602C5.65535 6.35025 5.52019 6.39756 5.42333 6.49442L5.00885 6.9089C4.37135 6.58452 3.84874 6.06417 3.52437 5.42442L3.9411 5.00768C4.03796 4.91082 4.08527 4.77566 4.0695 4.63825L4.00418 4.07059C3.97714 3.84307 3.78567 3.67188 3.5559 3.67188H3.1662C2.91165 3.67188 2.6999 3.88362 2.71567 4.13817C2.83506 6.06191 4.37361 7.59821 6.2951 7.7176C6.54965 7.73337 6.76139 7.52162 6.76139 7.26707V6.87737C6.76365 6.64985 6.59245 6.45838 6.36493 6.43135Z" fill="#4C4C4C"/>
<path fill-rule="evenodd" clip-rule="evenodd" d="M4.74749 10.2704C7.28101 10.2704 9.33484 8.21656 9.33484 5.68304C9.33484 3.14951 7.28101 1.09568 4.74749 1.09568C2.21396 1.09568 0.160138 3.14951 0.160138 5.68304C0.160138 8.21656 2.21396 10.2704 4.74749 10.2704ZM4.74749 10.4286C7.36838 10.4286 9.49302 8.30392 9.49302 5.68304C9.49302 3.06215 7.36838 0.9375 4.74749 0.9375C2.1266 0.9375 0.00195312 3.06215 0.00195312 5.68304C0.00195312 8.30392 2.1266 10.4286 4.74749 10.4286Z" fill="#4C4C4C"/>
</svg>
