<svg width="10" height="10" viewBox="0 0 10 10" fill="none" xmlns="http://www.w3.org/2000/svg">
<path d="M6.6578 3.89691C6.64118 3.80997 6.6037 3.72781 6.54901 3.65873C6.53791 3.64423 6.52629 3.63133 6.51359 3.61824C6.4163 3.51703 6.28097 3.45898 6.14229 3.45898H3.19326C3.05303 3.45898 2.92115 3.51557 2.8219 3.6183C2.80934 3.63127 2.79769 3.6443 2.78616 3.65926C2.73171 3.72804 2.6944 3.81009 2.67817 3.89715C2.67139 3.93133 2.66797 3.96676 2.66797 4.00259V6.14589C2.66797 6.22046 2.68261 6.29307 2.71163 6.36209C2.73674 6.42339 2.77485 6.48151 2.82187 6.53014C2.83371 6.54234 2.84548 6.55359 2.85804 6.56456C2.95204 6.64512 3.07108 6.68945 3.19326 6.68945H6.14229C6.26526 6.68945 6.38418 6.64495 6.47793 6.56367C6.49046 6.55318 6.50208 6.54216 6.5137 6.53014C6.55915 6.48316 6.59527 6.42917 6.62123 6.36964L6.62466 6.36116C6.65314 6.29344 6.6676 6.22106 6.6676 6.1459V4.00259C6.6676 3.96723 6.6643 3.93157 6.6578 3.89691ZM2.94 3.80591C2.94743 3.79465 2.95691 3.7831 2.96901 3.77048C3.02908 3.70836 3.10873 3.67417 3.19326 3.67417H6.14228C6.22754 3.67417 6.30722 3.70842 6.36662 3.7706C6.37688 3.78133 6.38668 3.79324 6.39522 3.80514L6.41778 3.8365L4.8437 5.25614C4.79518 5.30016 4.7327 5.32439 4.66776 5.32439C4.60346 5.32439 4.54104 5.30022 4.49193 5.2562L2.91943 3.83691L2.94 3.80591ZM2.87697 6.16482C2.87612 6.15898 2.87593 6.1525 2.87593 6.14589V4.04697L4.09745 5.14968L2.88825 6.24068L2.87697 6.16482ZM6.29965 6.43099C6.25238 6.45922 6.19793 6.47419 6.14229 6.47419H3.19326C3.13759 6.47419 3.08316 6.45922 3.03592 6.43099L2.98649 6.40134L4.23587 5.27464L4.37279 5.39788C4.45493 5.47167 4.55967 5.51235 4.66777 5.51235C4.77628 5.51235 4.88119 5.47167 4.96327 5.39788L5.10014 5.27458L6.34909 6.4014L6.29965 6.43099ZM6.45958 6.14589C6.45958 6.15238 6.45947 6.1588 6.45868 6.16452L6.44785 6.24109L5.23814 5.15027L6.45958 4.04751V6.14589Z" fill="#4C4C4C"/>
<path fill-rule="evenodd" clip-rule="evenodd" d="M4.66964 9.45889C7.13345 9.45889 9.13077 7.46158 9.13077 4.99777C9.13077 2.53396 7.13345 0.536644 4.66964 0.536644C2.20583 0.536644 0.208519 2.53396 0.208519 4.99777C0.208519 7.46158 2.20583 9.45889 4.66964 9.45889ZM4.66964 9.61272C7.21841 9.61272 9.2846 7.54654 9.2846 4.99777C9.2846 2.449 7.21841 0.382812 4.66964 0.382812C2.12087 0.382812 0.0546875 2.449 0.0546875 4.99777C0.0546875 7.54654 2.12087 9.61272 4.66964 9.61272Z" fill="#4C4C4C"/>
</svg>
