<svg width="69" height="18" viewBox="0 0 69 18" fill="none" xmlns="http://www.w3.org/2000/svg">
<rect width="69" height="18" rx="3" fill="#0077B5"/>
<line x1="19.2857" y1="4" x2="19.2857" y2="14.2857" stroke="#4194BF" stroke-width="0.571429"/>
<path fill-rule="evenodd" clip-rule="evenodd" d="M14 12.2727H12.2319V9.71607C12.2319 9.04687 11.9553 8.59003 11.3471 8.59003C10.8819 8.59003 10.6232 8.89832 10.5028 9.19543C10.4577 9.30207 10.4647 9.45063 10.4647 9.59918V12.2727H8.71308C8.71308 12.2727 8.73566 7.74386 8.71308 7.33219H10.4647V8.10757C10.5682 7.76855 11.1279 7.28469 12.0212 7.28469C13.1293 7.28469 14 7.99534 14 9.52561V12.2727ZM6.94167 6.71422H6.93039C6.36595 6.71422 6 6.33654 6 5.8578C6 5.36976 6.37676 5 6.95249 5C7.52775 5 7.88147 5.36883 7.89276 5.85641C7.89276 6.33514 7.52775 6.71422 6.94167 6.71422ZM6.20178 7.33219H7.76105V12.2727H6.20178V7.33219Z" fill="white"/>
<path d="M25.1077 10.4117H26.3267V11H24.3657V7.3006H25.1077V10.4117ZM29.5278 9.4683C29.5278 9.5743 29.5208 9.6697 29.5066 9.7545H27.3601C27.3778 9.9665 27.452 10.1326 27.5827 10.2527C27.7135 10.3728 27.8742 10.4329 28.065 10.4329C28.3406 10.4329 28.5367 10.3145 28.6533 10.0778H29.4536C29.3688 10.3605 29.2063 10.5937 28.966 10.7774C28.7258 10.9576 28.4307 11.0477 28.0809 11.0477C27.7983 11.0477 27.5439 10.9859 27.3177 10.8622C27.0951 10.735 26.9202 10.5566 26.793 10.3269C26.6694 10.0972 26.6075 9.83223 26.6075 9.5319C26.6075 9.22803 26.6694 8.96127 26.793 8.7316C26.9167 8.50193 27.0898 8.32527 27.3124 8.2016C27.535 8.07793 27.7912 8.0161 28.0809 8.0161C28.3601 8.0161 28.6092 8.07617 28.8282 8.1963C29.0508 8.31643 29.2222 8.4878 29.3423 8.7104C29.466 8.92947 29.5278 9.1821 29.5278 9.4683ZM28.7593 9.2563C28.7558 9.0655 28.6869 8.91357 28.5526 8.8005C28.4184 8.6839 28.2541 8.6256 28.0597 8.6256C27.876 8.6256 27.7205 8.68213 27.5933 8.7952C27.4697 8.90473 27.3937 9.05843 27.3654 9.2563H28.7593ZM30.9333 8.6733V10.0937C30.9333 10.1926 30.9563 10.2651 31.0022 10.311C31.0517 10.3534 31.1329 10.3746 31.246 10.3746H31.5905V11H31.1241C30.4987 11 30.186 10.6961 30.186 10.0884V8.6733H29.8362V8.0638H30.186V7.3377H30.9333V8.0638H31.5905V8.6733H30.9333ZM33.2478 11.0477C33.0075 11.0477 32.792 11.0053 32.6012 10.9205C32.4104 10.8322 32.2585 10.7138 32.1454 10.5654C32.0359 10.417 31.9758 10.2527 31.9652 10.0725H32.7125C32.7266 10.1856 32.7814 10.2792 32.8768 10.3534C32.9757 10.4276 33.0976 10.4647 33.2425 10.4647C33.3838 10.4647 33.4934 10.4364 33.5711 10.3799C33.6524 10.3234 33.693 10.2509 33.693 10.1626C33.693 10.0672 33.6435 9.99653 33.5446 9.9506C33.4492 9.90113 33.2955 9.84813 33.0835 9.7916C32.8644 9.7386 32.6842 9.68383 32.5429 9.6273C32.4051 9.57077 32.285 9.4842 32.1825 9.3676C32.0836 9.251 32.0341 9.09377 32.0341 8.8959C32.0341 8.73337 32.08 8.58497 32.1719 8.4507C32.2673 8.31643 32.4016 8.21043 32.5747 8.1327C32.7514 8.05497 32.9581 8.0161 33.1948 8.0161C33.5446 8.0161 33.8237 8.10443 34.0322 8.2811C34.2407 8.45423 34.3555 8.6892 34.3767 8.986H33.6665C33.6559 8.8694 33.6064 8.77753 33.5181 8.7104C33.4333 8.63973 33.3185 8.6044 33.1736 8.6044C33.0393 8.6044 32.9351 8.62913 32.8609 8.6786C32.7902 8.72807 32.7549 8.79697 32.7549 8.8853C32.7549 8.98423 32.8044 9.0602 32.9033 9.1132C33.0022 9.16267 33.1559 9.2139 33.3644 9.2669C33.5764 9.3199 33.7513 9.37467 33.8891 9.4312C34.0269 9.48773 34.1453 9.57607 34.2442 9.6962C34.3467 9.8128 34.3997 9.96827 34.4032 10.1626C34.4032 10.3322 34.3555 10.4841 34.2601 10.6184C34.1682 10.7527 34.034 10.8587 33.8573 10.9364C33.6842 11.0106 33.481 11.0477 33.2478 11.0477ZM36.095 9.145C36.095 8.78107 36.1762 8.456 36.3388 8.1698C36.5048 7.88007 36.7292 7.6557 37.0119 7.4967C37.2981 7.33417 37.6178 7.2529 37.9712 7.2529C38.3846 7.2529 38.7467 7.3589 39.0577 7.5709C39.3686 7.7829 39.5859 8.07617 39.7096 8.4507H38.8563C38.7715 8.27403 38.6513 8.14153 38.4959 8.0532C38.3439 7.96487 38.1673 7.9207 37.9659 7.9207C37.7503 7.9207 37.5578 7.97193 37.3882 8.0744C37.2221 8.17333 37.0914 8.31467 36.996 8.4984C36.9041 8.68213 36.8582 8.89767 36.8582 9.145C36.8582 9.3888 36.9041 9.60433 36.996 9.7916C37.0914 9.97533 37.2221 10.1184 37.3882 10.2209C37.5578 10.3198 37.7503 10.3693 37.9659 10.3693C38.1673 10.3693 38.3439 10.3251 38.4959 10.2368C38.6513 10.1449 38.7715 10.0107 38.8563 9.834H39.7096C39.5859 10.2121 39.3686 10.5071 39.0577 10.7191C38.7503 10.9276 38.3881 11.0318 37.9712 11.0318C37.6178 11.0318 37.2981 10.9523 37.0119 10.7933C36.7292 10.6308 36.5048 10.4064 36.3388 10.1202C36.1762 9.834 36.095 9.50893 36.095 9.145ZM41.6471 11.0477C41.3645 11.0477 41.1101 10.9859 40.8839 10.8622C40.6578 10.735 40.4794 10.5566 40.3486 10.3269C40.2214 10.0972 40.1578 9.83223 40.1578 9.5319C40.1578 9.23157 40.2232 8.96657 40.3539 8.7369C40.4882 8.50723 40.6702 8.33057 40.8998 8.2069C41.1295 8.0797 41.3857 8.0161 41.6683 8.0161C41.951 8.0161 42.2072 8.0797 42.4368 8.2069C42.6665 8.33057 42.8467 8.50723 42.9774 8.7369C43.1117 8.96657 43.1788 9.23157 43.1788 9.5319C43.1788 9.83223 43.1099 10.0972 42.9721 10.3269C42.8379 10.5566 42.6541 10.735 42.4209 10.8622C42.1913 10.9859 41.9333 11.0477 41.6471 11.0477ZM41.6471 10.4011C41.7814 10.4011 41.9068 10.3693 42.0234 10.3057C42.1436 10.2386 42.239 10.1396 42.3096 10.0089C42.3803 9.87817 42.4156 9.71917 42.4156 9.5319C42.4156 9.25277 42.3414 9.039 42.193 8.8906C42.0482 8.73867 41.8697 8.6627 41.6577 8.6627C41.4457 8.6627 41.2673 8.73867 41.1224 8.8906C40.9811 9.039 40.9104 9.25277 40.9104 9.5319C40.9104 9.81103 40.9793 10.0266 41.1171 10.1785C41.2585 10.3269 41.4351 10.4011 41.6471 10.4011ZM45.3502 8.0214C45.7 8.0214 45.9827 8.1327 46.1982 8.3553C46.4138 8.57437 46.5215 8.88177 46.5215 9.2775V11H45.7795V9.3782C45.7795 9.145 45.7212 8.96657 45.6046 8.8429C45.488 8.7157 45.329 8.6521 45.1276 8.6521C44.9227 8.6521 44.7602 8.7157 44.64 8.8429C44.5234 8.96657 44.4651 9.145 44.4651 9.3782V11H43.7231V8.0638H44.4651V8.4295C44.5641 8.3023 44.6895 8.20337 44.8414 8.1327C44.9969 8.0585 45.1665 8.0214 45.3502 8.0214ZM48.8542 8.0214C49.204 8.0214 49.4867 8.1327 49.7022 8.3553C49.9178 8.57437 50.0255 8.88177 50.0255 9.2775V11H49.2835V9.3782C49.2835 9.145 49.2252 8.96657 49.1086 8.8429C48.992 8.7157 48.833 8.6521 48.6316 8.6521C48.4267 8.6521 48.2642 8.7157 48.144 8.8429C48.0274 8.96657 47.9691 9.145 47.9691 9.3782V11H47.2271V8.0638H47.9691V8.4295C48.0681 8.3023 48.1935 8.20337 48.3454 8.1327C48.5009 8.0585 48.6705 8.0214 48.8542 8.0214ZM53.4606 9.4683C53.4606 9.5743 53.4536 9.6697 53.4394 9.7545H51.2929C51.3106 9.9665 51.3848 10.1326 51.5155 10.2527C51.6463 10.3728 51.807 10.4329 51.9978 10.4329C52.2734 10.4329 52.4695 10.3145 52.5861 10.0778H53.3864C53.3016 10.3605 53.1391 10.5937 52.8988 10.7774C52.6586 10.9576 52.3635 11.0477 52.0137 11.0477C51.7311 11.0477 51.4767 10.9859 51.2505 10.8622C51.0279 10.735 50.853 10.5566 50.7258 10.3269C50.6022 10.0972 50.5403 9.83223 50.5403 9.5319C50.5403 9.22803 50.6022 8.96127 50.7258 8.7316C50.8495 8.50193 51.0226 8.32527 51.2452 8.2016C51.4678 8.07793 51.724 8.0161 52.0137 8.0161C52.2929 8.0161 52.542 8.07617 52.761 8.1963C52.9836 8.31643 53.155 8.4878 53.2751 8.7104C53.3988 8.92947 53.4606 9.1821 53.4606 9.4683ZM52.6921 9.2563C52.6886 9.0655 52.6197 8.91357 52.4854 8.8005C52.3512 8.6839 52.1869 8.6256 51.9925 8.6256C51.8088 8.6256 51.6533 8.68213 51.5261 8.7952C51.4025 8.90473 51.3265 9.05843 51.2982 9.2563H52.6921ZM53.8114 9.5319C53.8114 9.22803 53.8733 8.96303 53.9969 8.7369C54.1206 8.50723 54.292 8.33057 54.511 8.2069C54.7301 8.0797 54.981 8.0161 55.2636 8.0161C55.6276 8.0161 55.9279 8.10797 56.1646 8.2917C56.4049 8.4719 56.5657 8.7263 56.6469 9.0549H55.8466C55.8042 8.9277 55.7318 8.82877 55.6293 8.7581C55.5304 8.6839 55.4067 8.6468 55.2583 8.6468C55.0463 8.6468 54.8785 8.72453 54.7548 8.88C54.6312 9.03193 54.5693 9.24923 54.5693 9.5319C54.5693 9.81103 54.6312 10.0283 54.7548 10.1838C54.8785 10.3357 55.0463 10.4117 55.2583 10.4117C55.5587 10.4117 55.7548 10.2774 55.8466 10.0089H56.6469C56.5657 10.3269 56.4049 10.5795 56.1646 10.7668C55.9244 10.9541 55.624 11.0477 55.2636 11.0477C54.981 11.0477 54.7301 10.9859 54.511 10.8622C54.292 10.735 54.1206 10.5583 53.9969 10.3322C53.8733 10.1025 53.8114 9.83577 53.8114 9.5319ZM58.0544 8.6733V10.0937C58.0544 10.1926 58.0774 10.2651 58.1233 10.311C58.1728 10.3534 58.254 10.3746 58.3671 10.3746H58.7116V11H58.2452C57.6198 11 57.3071 10.6961 57.3071 10.0884V8.6733H56.9573V8.0638H57.3071V7.3377H58.0544V8.0638H58.7116V8.6733H58.0544ZM60.2046 7.237L60.1198 9.7969H59.4944L59.4043 7.237H60.2046ZM59.823 11.0371C59.6887 11.0371 59.5774 10.9965 59.4891 10.9152C59.4043 10.8304 59.3619 10.7262 59.3619 10.6025C59.3619 10.4788 59.4043 10.3764 59.4891 10.2951C59.5774 10.2103 59.6887 10.1679 59.823 10.1679C59.9537 10.1679 60.0615 10.2103 60.1463 10.2951C60.2311 10.3764 60.2735 10.4788 60.2735 10.6025C60.2735 10.7262 60.2311 10.8304 60.1463 10.9152C60.0615 10.9965 59.9537 11.0371 59.823 11.0371Z" fill="white"/>
</svg>
