<svg width="10" height="10" viewBox="0 0 10 10" fill="none" xmlns="http://www.w3.org/2000/svg">
<path d="M2.73242 5.0768V5.07124C2.78211 4.42123 3.01427 3.93367 3.41758 3.62543C3.81542 3.31163 4.24649 3.16029 4.71611 3.16029C5.20784 3.15473 5.6665 3.32275 6.07547 3.65896C6.48993 3.98962 6.69433 4.48273 6.69433 5.12145V5.16072C6.69433 5.80518 6.48993 6.28699 6.07547 6.61765C5.66102 6.95386 5.20236 7.12206 4.71063 7.12206H4.68853C4.20777 7.1165 3.76573 6.94831 3.35693 6.61209C2.94796 6.28144 2.73808 5.77146 2.7326 5.07662L2.73242 5.0768ZM4.59447 3.31163H4.46185C4.43427 3.34534 4.41217 3.38443 4.39007 3.41814C4.36797 3.45185 4.34586 3.48539 4.32376 3.52466C4.30166 3.55837 4.27408 3.6032 4.25746 3.63673C4.23535 3.67044 4.21873 3.70397 4.20211 3.74324C4.16887 3.79937 4.14129 3.85531 4.11919 3.9057C4.0916 3.95609 4.0695 4.00665 4.05288 4.05148C4.08612 4.0739 4.12467 4.10187 4.16887 4.11872C4.21856 4.13558 4.26842 4.15244 4.3181 4.16355C4.37345 4.17485 4.42313 4.18041 4.46734 4.18597C4.51702 4.19153 4.56122 4.19726 4.59447 4.19726V3.31163ZM4.82662 4.19153C4.85421 4.19153 4.88745 4.19709 4.92051 4.19153C4.95376 4.19153 4.9923 4.18597 5.02554 4.18023C5.08637 4.16893 5.15815 4.15226 5.2135 4.1354C5.27432 4.11299 5.32949 4.08501 5.36821 4.0513C5.3019 3.88884 5.23012 3.75992 5.15815 3.63655C5.08619 3.51318 5.00344 3.40685 4.91503 3.31719V3.31163H4.82662V4.19153ZM4.22987 3.3622V3.35664C4.19115 3.37349 4.15243 3.40147 4.10822 3.41832C4.0695 3.43518 4.01982 3.45759 3.98109 3.48001C3.90365 3.51928 3.82638 3.56411 3.74893 3.61449C3.67715 3.66488 3.60518 3.72101 3.54454 3.77695C3.56664 3.79937 3.59422 3.82178 3.61632 3.83864C3.63842 3.85549 3.66601 3.87791 3.69377 3.90032C3.71587 3.91162 3.74345 3.92829 3.77121 3.95071C3.7988 3.96756 3.83204 3.98998 3.8651 4.01239C3.90931 3.91144 3.95351 3.8051 4.00885 3.70971C4.0642 3.60875 4.12484 3.51354 4.18567 3.42944C4.19115 3.41814 4.19681 3.40703 4.20777 3.39573C4.21325 3.39017 4.21891 3.37349 4.22987 3.3622ZM5.92058 3.77677V3.77121C5.78249 3.6647 5.66084 3.57504 5.53937 3.5191C5.4179 3.46315 5.29625 3.40703 5.18574 3.3622C5.27414 3.45185 5.35159 3.56393 5.40128 3.67044C5.45662 3.78251 5.51178 3.90014 5.55599 4.01221C5.57809 4.00092 5.60567 3.9898 5.63891 3.96738C5.6665 3.95053 5.70522 3.93367 5.73846 3.917C5.7717 3.89458 5.79929 3.87217 5.83235 3.84975C5.86559 3.82178 5.89866 3.79937 5.92076 3.77695L5.92058 3.77677ZM5.82669 5.02641H6.46217C6.46217 4.81913 6.41796 4.62296 6.33504 4.42123C6.25759 4.22506 6.14708 4.0626 6.00899 3.92256V3.917C5.98141 3.96182 5.94268 4.00109 5.90396 4.02907C5.85976 4.05704 5.82104 4.07946 5.77683 4.10187C5.74925 4.11872 5.72149 4.14114 5.6939 4.15226C5.66632 4.16911 5.6276 4.18023 5.60002 4.19709C5.62212 4.24191 5.64422 4.2923 5.66632 4.33713C5.68294 4.38752 5.71053 4.44364 5.72166 4.49403C5.75491 4.58369 5.77701 4.6789 5.79911 4.7743C5.81573 4.8584 5.82669 4.94805 5.82669 5.02641ZM3.82656 4.19709V4.19153C3.78235 4.16911 3.73267 4.15226 3.69394 4.12984C3.65522 4.10187 3.6165 4.07372 3.58343 4.0513C3.55019 4.03445 3.51713 4.01203 3.48955 3.98962C3.46196 3.9672 3.43986 3.94479 3.41776 3.92238C3.27401 4.06242 3.16916 4.21932 3.10285 4.40437C3.03106 4.58925 2.9812 4.79671 2.9591 5.02086H3.63878C3.63878 4.86396 3.66088 4.71261 3.6996 4.56127C3.73284 4.40437 3.78235 4.28674 3.82656 4.19709ZM4.59447 5.02086V4.3764C4.55026 4.38196 4.49492 4.38196 4.44523 4.3764C4.38989 4.37084 4.33472 4.35399 4.28504 4.33713C4.24084 4.32583 4.18549 4.31472 4.14129 4.29786C4.0916 4.28656 4.04174 4.26415 4.00319 4.24173C3.96995 4.29786 3.94237 4.3651 3.92027 4.4379C3.89269 4.50515 3.87606 4.57795 3.85944 4.64519C3.8483 4.71243 3.84282 4.78524 3.83734 4.84692C3.83186 4.9086 3.8262 4.97029 3.8262 5.02068H4.59429L4.59447 5.02086ZM4.82662 4.3877V5.02086H5.6444C5.6444 4.98714 5.6444 4.94805 5.63891 4.90323C5.62778 4.86396 5.62229 4.81357 5.61681 4.76874C5.60019 4.7015 5.58357 4.62869 5.56147 4.56145C5.53937 4.49977 5.51727 4.43808 5.48968 4.3877C5.47854 4.35972 5.46758 4.32601 5.45644 4.3036C5.43982 4.27563 5.4232 4.25877 5.41224 4.24191C5.35141 4.28674 5.26849 4.31472 5.16912 4.33713C5.07523 4.35954 4.96472 4.38196 4.86517 4.38752H4.82645L4.82662 4.3877ZM3.6386 5.20573H2.95892C2.95892 5.30094 2.97554 5.40746 3.00313 5.53638C3.03071 5.67087 3.08605 5.79424 3.14688 5.92872C3.17446 5.99597 3.2077 6.06321 3.24077 6.13045C3.27949 6.19214 3.32369 6.25938 3.3679 6.32106C3.40114 6.29865 3.4342 6.28179 3.46179 6.26494C3.49503 6.24808 3.53357 6.22567 3.56681 6.20881C3.60554 6.19196 3.64426 6.1751 3.68846 6.15269C3.72719 6.13583 3.77687 6.11342 3.82656 6.091C3.78235 5.95096 3.73267 5.81647 3.69943 5.66513C3.6607 5.51935 3.6386 5.37375 3.6386 5.21129V5.20573ZM4.59447 5.8613V5.20573H3.82638C3.82638 5.25056 3.83186 5.3178 3.843 5.38504C3.84848 5.45229 3.8651 5.52509 3.87624 5.59807C3.89834 5.67661 3.91496 5.75497 3.93707 5.82221C3.95917 5.88945 3.98127 5.94558 4.00337 5.99597C4.10292 5.9567 4.20229 5.92872 4.2686 5.91187C4.34038 5.88945 4.40669 5.8726 4.47299 5.86704H4.53382C4.55592 5.86148 4.57802 5.86148 4.59464 5.86148L4.59447 5.8613ZM4.82662 5.20573V5.85574C4.86535 5.8613 4.90955 5.86704 4.95375 5.8726C5.00344 5.87816 5.06426 5.88945 5.11395 5.90057L5.19688 5.91743C5.22446 5.92872 5.2577 5.93428 5.28528 5.93984C5.31853 5.95114 5.35159 5.9567 5.38483 5.96781C5.41241 5.97911 5.44017 5.98467 5.46228 5.99579C5.53406 5.81091 5.57827 5.65957 5.60603 5.53065C5.63361 5.40728 5.64475 5.30094 5.64475 5.21129V5.20573H4.82662ZM6.46217 5.21129V5.20573H5.82669V5.23944C5.82121 5.34595 5.80459 5.46914 5.78249 5.59807C5.76039 5.72144 5.7107 5.86704 5.6444 6.04635C5.7328 6.09118 5.81573 6.13601 5.88204 6.18084C5.94834 6.22567 6.00917 6.27606 6.05337 6.32088C6.14726 6.22567 6.23019 6.09674 6.30197 5.92854C6.37376 5.76609 6.42362 5.59789 6.45121 5.41857C6.45669 5.38486 6.45669 5.35133 6.46234 5.31762V5.21111L6.46217 5.21129ZM4.59447 6.91477V6.04062C4.45637 6.06303 4.34021 6.091 4.2518 6.11342C4.16339 6.13583 4.09708 6.15825 4.05288 6.18066C4.08612 6.26476 4.11919 6.33756 4.15243 6.4048C4.18567 6.46649 4.22421 6.53373 4.25746 6.58968C4.26859 6.61209 4.2907 6.63451 4.30714 6.66248C4.32376 6.68489 4.33472 6.71287 4.35134 6.73528C4.36797 6.76325 4.38459 6.79696 4.40103 6.8305C4.42313 6.85847 4.43975 6.89218 4.46185 6.91459L4.59447 6.91477ZM4.82662 6.91477H4.95375C5.00344 6.8755 5.0533 6.81956 5.09185 6.75787C5.13605 6.69619 5.18574 6.62339 5.21898 6.5617C5.2577 6.4889 5.29642 6.42166 5.32949 6.35442C5.36255 6.28717 5.39031 6.22549 5.41241 6.18066C5.35159 6.15825 5.26866 6.13583 5.18591 6.11342C5.10316 6.091 4.987 6.06859 4.8268 6.04617V6.91477H4.82662ZM5.92058 6.45537V6.44981C5.90944 6.43296 5.88734 6.41054 5.8709 6.39369C5.85445 6.37683 5.82669 6.35442 5.79911 6.33756C5.77701 6.32071 5.74942 6.30385 5.71618 6.28717C5.68294 6.2705 5.63874 6.2479 5.60019 6.22549C5.57809 6.27032 5.53937 6.34886 5.4842 6.45519C5.43452 6.5617 5.34611 6.69063 5.2356 6.83068C5.37369 6.80826 5.49534 6.75787 5.60585 6.69063C5.7275 6.62895 5.83235 6.54485 5.92076 6.45519L5.92058 6.45537ZM3.8651 6.27606V6.2705C3.82638 6.29291 3.76555 6.32088 3.70491 6.34904C3.6386 6.37701 3.56681 6.41072 3.50051 6.45555C3.53923 6.48926 3.57795 6.52279 3.61102 6.54521C3.64426 6.57318 3.68281 6.59559 3.71605 6.61801C3.77687 6.65728 3.84866 6.69655 3.92045 6.73008C3.99223 6.76361 4.08064 6.79732 4.19115 6.83103C4.15243 6.7862 4.12484 6.73008 4.09726 6.68525C4.06968 6.64042 4.03644 6.59559 4.00885 6.55077C3.98127 6.50594 3.95917 6.45555 3.93707 6.41072C3.90948 6.36589 3.88738 6.32106 3.86528 6.27624L3.8651 6.27606Z" fill="#4C4C4C"/>
<path fill-rule="evenodd" clip-rule="evenodd" d="M4.71401 9.56079C7.15458 9.56079 9.13305 7.58231 9.13305 5.14174C9.13305 2.70117 7.15458 0.722693 4.71401 0.722693C2.27343 0.722693 0.294959 2.70117 0.294959 5.14174C0.294959 7.58231 2.27343 9.56079 4.71401 9.56079ZM4.71401 9.71317C7.23874 9.71317 9.28544 7.66647 9.28544 5.14174C9.28544 2.61701 7.23874 0.570312 4.71401 0.570312C2.18928 0.570312 0.142578 2.61701 0.142578 5.14174C0.142578 7.66647 2.18928 9.71317 4.71401 9.71317Z" fill="#4C4C4C"/>
</svg>
